<mxfile host="app.diagrams.net" modified="2024-02-29T07:09:58.152Z" agent="Mozilla/5.0 (Windows NT 10.0; Win64; x64) AppleWebKit/537.36 (KHTML, like Gecko) Chrome/122.0.0.0 Safari/537.36" version="23.1.8" etag="Xa7m2Bxs9SybIs_AYHhz" type="github">
  <diagram name="Page-1" id="8gDpeWk2Oe1pA4sk9Ua2">
    <mxGraphModel>
      <root>
        <mxCell id="0" />
        <mxCell id="1" parent="0" />
      </root>
    </mxGraphModel>
  </diagram>
</mxfile>
